<?xml version="1.0" encoding="utf-8"?>
<!-- Generator: Adobe Illustrator 16.0.0, SVG Export Plug-In . SVG Version: 6.00 Build 0)  -->
<!DOCTYPE svg PUBLIC "-//W3C//DTD SVG 1.1//EN" "http://www.w3.org/Graphics/SVG/1.1/DTD/svg11.dtd">
<svg version="1.1" id="Ebene_1" xmlns="http://www.w3.org/2000/svg" xmlns:xlink="http://www.w3.org/1999/xlink" x="0px" y="0px"
	  viewBox="0 0 100 100" enable-background="new 0 0 100 100" xml:space="preserve">
<g>
	<path fill="#808080" d="M87.517,34.573C86.115,16.222,71.154,1.378,52.686,0.093C30.71-1.428,12.361,15.989,12.361,37.729
		c0,7.831,2.337,15.078,6.428,21.039c4.909,7.247,18.936,27.702,26.416,38.689c2.338,3.39,7.365,3.39,9.584,0
		c7.479-10.871,21.507-31.442,26.416-38.689C85.881,51.987,88.219,43.573,87.517,34.573z M49.997,59.235
		c-11.922,0-21.624-9.703-21.624-21.625s9.702-21.623,21.624-21.623c11.922,0,21.625,9.701,21.625,21.623
		C71.621,49.534,61.919,59.235,49.997,59.235z"/>
</g>
</svg>
