<?xml version="1.0" encoding="utf-8"?>
<!-- Generator: Adobe Illustrator 16.0.0, SVG Export Plug-In . SVG Version: 6.00 Build 0)  -->
<!DOCTYPE svg PUBLIC "-//W3C//DTD SVG 1.1//EN" "http://www.w3.org/Graphics/SVG/1.1/DTD/svg11.dtd">
<svg version="1.1" id="Ebene_1" xmlns="http://www.w3.org/2000/svg" xmlns:xlink="http://www.w3.org/1999/xlink" x="0px" y="0px"
	  viewBox="0 0 100 100" enable-background="new 0 0 100 100" xml:space="preserve">
<path fill="#808080" d="M3.14,20.248c2.807-3.676,7.229-6.059,12.184-6.059h69.355c4.938,0,9.348,2.367,12.154,6.021L50.001,52.93
	L3.14,20.248L3.14,20.248z M60.87,52.663h0.042l37.844,23.854c0.8-1.853,1.244-3.892,1.244-6.028V29.512
	c0-1.414-0.193-2.785-0.558-4.086L60.87,52.663L60.87,52.663z M1.245,76.52l37.846-23.856h0.043L0.559,25.424
	C0.196,26.728,0,28.098,0,29.512V70.49C0,72.627,0.445,74.666,1.245,76.52L1.245,76.52z M84.679,85.811H15.323
	c-4.412,0-8.403-1.89-11.205-4.899l39.869-24.819l6.016,4.246l6.003-4.238l39.844,24.85C93.048,83.938,89.072,85.811,84.679,85.811z
	"/>
</svg>
