<?xml version="1.0" encoding="utf-8"?>
<!-- Generator: Adobe Illustrator 16.0.0, SVG Export Plug-In . SVG Version: 6.00 Build 0) -->
<!DOCTYPE svg PUBLIC "-//W3C//DTD SVG 1.1//EN" "http://www.w3.org/Graphics/SVG/1.1/DTD/svg11.dtd">
<svg version="1.1" id="Ebene_1" xmlns="http://www.w3.org/2000/svg" xmlns:xlink="http://www.w3.org/1999/xlink" x="0px" y="0px" viewBox="700 4950 100 100" enable-background="new 700 4950 100 100" xml:space="preserve">
	<path fill="#1B6172" d="M794.168,5027.898l-0.556-1.112c-1.557-3.669-20.684-9.229-22.241-9.341l-1.223,0.111
	c-2.335,0.444-4.893,2.557-9.897,6.895c-1.001,0.889-2.335,1.111-3.559,0.444c-6.56-3.669-14.567-11.009-18.57-15.457
	c-4.337-4.782-9.563-12.677-12.01-19.016c-0.445-1.223,0-2.558,0.89-3.447c5.671-5.115,8.118-7.562,8.34-10.231
	c0.111-1.557-3.225-21.24-6.672-23.13l-1-0.667c-2.224-1.445-5.561-3.559-9.23-2.78c-0.89,0.222-1.779,0.556-2.558,1
	c-2.447,1.557-8.563,5.783-11.343,11.231c-1.668,3.447-2.447,34.695,20.906,61.051c23.13,26.133,51.709,27.245,55.935,26.354h0.111
	l0.333-0.111c5.783-2.112,10.676-7.561,12.566-9.896C797.838,5035.683,795.503,5030.678,794.168,5027.898z" />
</svg>
