<?xml version="1.0" encoding="utf-8"?>
<!-- Generator: Adobe Illustrator 16.0.0, SVG Export Plug-In . SVG Version: 6.00 Build 0) -->
<!DOCTYPE svg PUBLIC "-//W3C//DTD SVG 1.1//EN" "http://www.w3.org/Graphics/SVG/1.1/DTD/svg11.dtd">
<svg version="1.1" id="Ebene_1" xmlns="http://www.w3.org/2000/svg" xmlns:xlink="http://www.w3.org/1999/xlink" x="0px" y="0px" viewBox="0 0 522.462 145.9" enable-background="new 0 0 522.462 145.9" xml:space="preserve">
	<path fill="#1B6172" d="M58.207,108.878c1.605,0,3.091,0.242,4.455,0.726c1.364,0.484,2.546,1.184,3.547,2.096
	c1.001,0.913,1.782,2.008,2.343,3.283c0.561,1.276,0.841,2.707,0.841,4.291c0,1.737-0.286,3.266-0.858,4.586
	c-0.572,1.32-1.37,2.426-2.393,3.316c-1.023,0.892-2.244,1.562-3.663,2.014c-1.419,0.45-2.986,0.676-4.702,0.676h-7.293v-20.987
	H58.207z M56.887,127.094c1.298,0,2.513-0.132,3.646-0.396c1.133-0.264,2.112-0.703,2.937-1.319
	c0.825-0.616,1.474-1.436,1.947-2.458c0.473-1.023,0.709-2.283,0.709-3.779c0-1.43-0.275-2.623-0.825-3.58
	c-0.55-0.957-1.271-1.727-2.162-2.311c-0.891-0.582-1.903-1-3.036-1.254c-1.133-0.252-2.283-0.379-3.448-0.379h-3.267v15.51
	L56.887,127.094z" />
	<path fill="#1B6172" d="M89.523,123.036c0.417,0.572,0.863,1.248,1.336,2.029s0.908,1.529,1.304,2.244s0.847,1.566,1.353,2.557
	H90.15c-0.022-0.065-0.121-0.291-0.297-0.676c-0.176-0.385-0.396-0.847-0.66-1.387c-0.264-0.539-0.561-1.105-0.891-1.699
	c-0.33-0.594-0.649-1.121-0.957-1.584c-0.242-0.352-0.522-0.73-0.841-1.139c-0.319-0.406-0.633-0.791-0.94-1.154
	c-0.309-0.363-0.589-0.688-0.841-0.974c-0.253-0.286-0.435-0.495-0.545-0.628h-2.673v9.24h-2.904v-20.987h5.412
	c0.88,0,1.749,0.121,2.607,0.362c0.858,0.242,1.617,0.605,2.277,1.09s1.193,1.078,1.601,1.781c0.407,0.705,0.61,1.519,0.61,2.442
	c0,1.144-0.335,2.206-1.006,3.185c-0.671,0.979-1.623,1.799-2.854,2.459c0.264,0.308,0.621,0.736,1.072,1.287
	C88.77,122.034,89.171,122.551,89.523,123.036z M84.012,118.085c0.484,0,0.962-0.071,1.436-0.215
	c0.473-0.143,0.896-0.362,1.271-0.659c0.374-0.298,0.677-0.672,0.908-1.123c0.231-0.45,0.347-0.973,0.347-1.567
	c0-0.417-0.105-0.813-0.313-1.188c-0.209-0.373-0.468-0.692-0.776-0.957c-0.308-0.264-0.649-0.473-1.023-0.627
	c-0.374-0.152-0.737-0.23-1.089-0.23h-3.267v6.6L84.012,118.085z" />
	<path fill="#1B6172" d="M103.218,126.237c0.594,0.044,1.083,0.275,1.468,0.692c0.385,0.418,0.578,0.913,0.578,1.485
	c0,0.594-0.214,1.105-0.644,1.534c-0.429,0.429-0.94,0.632-1.534,0.61c-0.573-0.045-1.056-0.27-1.452-0.676
	c-0.396-0.408-0.583-0.896-0.561-1.469c0-0.594,0.209-1.111,0.627-1.551C102.118,126.423,102.624,126.214,103.218,126.237z" />
	<path fill="#1B6172" d="M126.549,117.161c0.748,0.375,1.44,0.754,2.079,1.139c0.638,0.386,1.193,0.825,1.667,1.32
	c0.473,0.495,0.841,1.067,1.105,1.717c0.264,0.648,0.396,1.424,0.396,2.326c0,0.88-0.154,1.721-0.462,2.523
	c-0.309,0.805-0.737,1.508-1.287,2.113c-0.55,0.605-1.21,1.083-1.98,1.436c-0.771,0.352-1.628,0.527-2.574,0.527
	c-1.584,0-2.986-0.412-4.208-1.237c-1.221-0.825-2.128-1.997-2.722-3.515l2.541-1.254c0.572,0.99,1.209,1.805,1.914,2.441
	c0.704,0.639,1.529,0.957,2.475,0.957c0.462,0,0.896-0.109,1.304-0.33c0.407-0.219,0.764-0.506,1.072-0.857s0.55-0.76,0.726-1.221
	c0.176-0.463,0.264-0.936,0.264-1.42c0-0.924-0.292-1.666-0.875-2.227c-0.583-0.562-1.282-1.062-2.096-1.502
	c-0.264-0.154-0.534-0.297-0.808-0.429c-0.275-0.132-0.567-0.274-0.875-0.429c-0.573-0.286-1.128-0.595-1.667-0.924
	c-0.54-0.33-1.018-0.705-1.436-1.123c-0.418-0.418-0.754-0.901-1.007-1.451c-0.253-0.551-0.379-1.199-0.379-1.947
	s0.132-1.441,0.396-2.079s0.632-1.188,1.105-1.649c0.473-0.463,1.034-0.826,1.683-1.09c0.648-0.264,1.37-0.396,2.162-0.396
	c1.209,0,2.298,0.287,3.267,0.859c0.968,0.572,1.737,1.44,2.31,2.606l-2.409,1.452c-0.88-1.562-1.969-2.344-3.267-2.344
	c-0.594,0-1.133,0.231-1.617,0.693s-0.726,1.045-0.726,1.749c0,0.419,0.082,0.781,0.247,1.089c0.165,0.309,0.38,0.584,0.644,0.825
	c0.264,0.242,0.556,0.451,0.875,0.627c0.319,0.177,0.632,0.33,0.94,0.462c0.22,0.11,0.435,0.203,0.644,0.281
	C126.18,116.958,126.373,117.051,126.549,117.161z" />
	<path fill="#1B6172" d="M151.958,108.878l8.283,20.987h-3.168l-2.112-5.412h-9.768l-2.145,5.412h-3.102l8.514-20.987H151.958z
	 M146.216,121.847h7.722l-3.828-9.636L146.216,121.847z" />
	<path fill="#1B6172" d="M187.664,108.878v20.987h-2.871l-12.903-15.74v15.74h-2.871v-20.987h2.409l13.365,16.302v-16.302H187.664z" />
	<path fill="#1B6172" d="M204.593,108.878c1.605,0,3.091,0.242,4.455,0.726c1.364,0.484,2.546,1.184,3.547,2.096
	c1.001,0.913,1.782,2.008,2.343,3.283c0.561,1.276,0.841,2.707,0.841,4.291c0,1.737-0.286,3.266-0.858,4.586
	c-0.572,1.32-1.37,2.426-2.393,3.316c-1.023,0.892-2.244,1.562-3.663,2.014c-1.419,0.45-2.986,0.676-4.702,0.676h-7.293v-20.987
	H204.593z M203.273,127.094c1.298,0,2.513-0.132,3.646-0.396c1.133-0.264,2.112-0.703,2.937-1.319
	c0.825-0.616,1.474-1.436,1.947-2.458c0.473-1.023,0.709-2.283,0.709-3.779c0-1.43-0.275-2.623-0.825-3.58
	c-0.55-0.957-1.271-1.727-2.162-2.311c-0.891-0.582-1.903-1-3.036-1.254c-1.133-0.252-2.283-0.379-3.448-0.379h-3.267v15.51
	L203.273,127.094z" />
	<path fill="#1B6172" d="M235.91,123.036c0.417,0.572,0.863,1.248,1.336,2.029s0.908,1.529,1.304,2.244s0.847,1.566,1.353,2.557
	h-3.366c-0.022-0.065-0.121-0.291-0.297-0.676c-0.176-0.385-0.396-0.847-0.66-1.387c-0.264-0.539-0.561-1.105-0.891-1.699
	c-0.33-0.594-0.649-1.121-0.957-1.584c-0.242-0.352-0.522-0.73-0.841-1.139c-0.319-0.406-0.633-0.791-0.94-1.154
	c-0.309-0.363-0.589-0.688-0.841-0.974c-0.253-0.286-0.435-0.495-0.545-0.628h-2.673v9.24h-2.904v-20.987h5.412
	c0.88,0,1.749,0.121,2.607,0.362c0.858,0.242,1.617,0.605,2.277,1.09s1.193,1.078,1.601,1.781c0.407,0.705,0.61,1.519,0.61,2.442
	c0,1.144-0.335,2.206-1.006,3.185c-0.671,0.979-1.623,1.799-2.854,2.459c0.264,0.308,0.621,0.736,1.072,1.287
	C235.156,122.034,235.558,122.551,235.91,123.036z M230.398,118.085c0.484,0,0.962-0.071,1.436-0.215
	c0.473-0.143,0.896-0.362,1.271-0.659c0.374-0.298,0.677-0.672,0.908-1.123c0.231-0.45,0.347-0.973,0.347-1.567
	c0-0.417-0.105-0.813-0.313-1.188c-0.209-0.373-0.468-0.692-0.776-0.957c-0.308-0.264-0.649-0.473-1.023-0.627
	c-0.374-0.152-0.737-0.23-1.089-0.23h-3.267v6.6L230.398,118.085z" />
	<path fill="#1B6172" d="M258.646,108.878l8.283,20.987h-3.168l-2.112-5.412h-9.768l-2.145,5.412h-3.102l8.514-20.987H258.646z
	 M252.904,121.847h7.722l-3.828-9.636L252.904,121.847z" />
	<path fill="#1B6172" d="M302.867,108.878v2.573H293v6.072h9.239v2.607H293v9.734h-2.904v-20.987H302.867z" />
	<path fill="#1B6172" d="M319.795,108.878l8.282,20.987h-3.168l-2.111-5.412h-9.769l-2.145,5.412h-3.103l8.515-20.987H319.795z
	 M314.053,121.847h7.722l-3.828-9.636L314.053,121.847z" />
	<path fill="#1B6172" d="M348.538,127.391v2.475h-11.847v-20.987h2.673v18.546L348.538,127.391z" />
	<path fill="#1B6172" d="M367.745,108.878v2.606h-6.766v18.381h-2.904v-18.414h-6.501v-2.573H367.745z" />
	<path fill="#1B6172" d="M389.162,127.259v2.606h-13.397v-20.987h12.771v2.606h-9.867v6.039h9.24v2.607h-9.24v7.16L389.162,127.259z" />
	<path fill="#1B6172" d="M408.994,123.036c0.418,0.572,0.863,1.248,1.337,2.029c0.473,0.781,0.907,1.529,1.303,2.244
	c0.396,0.715,0.847,1.566,1.354,2.557h-3.366c-0.022-0.065-0.121-0.291-0.297-0.676c-0.177-0.385-0.396-0.847-0.66-1.387
	c-0.264-0.539-0.561-1.105-0.891-1.699s-0.649-1.121-0.957-1.584c-0.242-0.352-0.523-0.73-0.842-1.139
	c-0.319-0.406-0.633-0.791-0.94-1.154c-0.309-0.363-0.589-0.688-0.842-0.974s-0.435-0.495-0.544-0.628h-2.673v9.24h-2.904v-20.987
	h5.412c0.88,0,1.749,0.121,2.606,0.362c0.858,0.242,1.617,0.605,2.277,1.09s1.193,1.078,1.601,1.781
	c0.406,0.705,0.61,1.519,0.61,2.442c0,1.144-0.336,2.206-1.007,3.185s-1.622,1.799-2.854,2.459c0.265,0.308,0.622,0.736,1.073,1.287
	C408.24,122.034,408.641,122.551,408.994,123.036z M403.483,118.085c0.483,0,0.962-0.071,1.436-0.215
	c0.473-0.143,0.896-0.362,1.271-0.659c0.373-0.298,0.676-0.672,0.907-1.123c0.231-0.45,0.347-0.973,0.347-1.567
	c0-0.417-0.104-0.813-0.313-1.188c-0.21-0.373-0.468-0.692-0.775-0.957c-0.309-0.264-0.649-0.473-1.023-0.627
	c-0.374-0.152-0.737-0.23-1.089-0.23h-3.267v6.6L403.483,118.085z" />
	<path fill="#1B6172" d="M440.937,108.878v20.987H438V113.3l-7.788,9.306c-0.066-0.153-0.242-0.439-0.528-0.857
	s-0.638-0.908-1.056-1.469s-0.886-1.172-1.402-1.832c-0.518-0.66-1.028-1.303-1.534-1.93c-0.507-0.627-0.985-1.221-1.436-1.782
	c-0.451-0.562-0.82-1.028-1.105-1.403v16.533h-2.938v-20.987h2.739l7.326,8.942l7.688-8.942H440.937z" />
	<path fill="#1B6172" d="M463.013,127.259v2.606h-13.397v-20.987h12.771v2.606h-9.867v6.039h9.24v2.607h-9.24v7.16L463.013,127.259z" />
	<path fill="#1B6172" d="M475.289,108.878v20.987h-2.904v-20.987H475.289z" />
	<path fill="#1B6172" d="M498.058,127.259v2.606h-13.397v-20.987h12.771v2.606h-9.867v6.039h9.24v2.607h-9.24v7.16L498.058,127.259z" />
	<path fill="#1B6172" d="M517.89,123.036c0.418,0.572,0.863,1.248,1.337,2.029c0.473,0.781,0.907,1.529,1.303,2.244
	c0.396,0.715,0.847,1.566,1.354,2.557h-3.366c-0.022-0.065-0.121-0.291-0.297-0.676c-0.177-0.385-0.396-0.847-0.66-1.387
	c-0.264-0.539-0.561-1.105-0.891-1.699s-0.649-1.121-0.957-1.584c-0.242-0.352-0.523-0.73-0.842-1.139
	c-0.319-0.406-0.633-0.791-0.94-1.154c-0.309-0.363-0.589-0.688-0.842-0.974s-0.435-0.495-0.544-0.628h-2.673v9.24h-2.904v-20.987
	h5.412c0.88,0,1.749,0.121,2.606,0.362c0.858,0.242,1.617,0.605,2.277,1.09s1.193,1.078,1.601,1.781
	c0.406,0.705,0.61,1.519,0.61,2.442c0,1.144-0.336,2.206-1.007,3.185s-1.622,1.799-2.854,2.459c0.265,0.308,0.622,0.736,1.073,1.287
	C517.136,122.034,517.538,122.551,517.89,123.036z M512.379,118.085c0.483,0,0.962-0.071,1.436-0.215
	c0.473-0.143,0.896-0.362,1.271-0.659c0.373-0.298,0.676-0.672,0.907-1.123c0.231-0.45,0.347-0.973,0.347-1.567
	c0-0.417-0.104-0.813-0.313-1.188c-0.21-0.373-0.468-0.692-0.775-0.957c-0.309-0.264-0.649-0.473-1.023-0.627
	c-0.374-0.152-0.737-0.23-1.089-0.23h-3.267v6.6L512.379,118.085z" />
	<g>
		<path fill="#B2B2B2" d="M61.914,101.842v1.893h-12.21l8.756-12.299h-8.492v-1.693h12.034l-8.558,12.121L61.914,101.842z" />
		<path fill="#B2B2B2" d="M79.36,89.743l5.522,13.992H82.77l-1.408-3.609H74.85l-1.43,3.609h-2.068l5.676-13.992H79.36z
		 M75.532,98.388h5.148l-2.552-6.424L75.532,98.388z" />
		<path fill="#B2B2B2" d="M105.958,89.743v13.992h-1.936v-6.49h-7.48v6.49h-1.936V89.743h1.936v5.764h7.48v-5.764H105.958z" />
		<path fill="#B2B2B2" d="M128.552,89.743v13.992h-1.914l-8.602-10.494v10.494h-1.914V89.743h1.606l8.91,10.867V89.743H128.552z" />
		<path fill="#B2B2B2" d="M146.372,89.743l5.522,13.992h-2.112l-1.408-3.609h-6.512l-1.43,3.609h-2.068l5.676-13.992H146.372z
		 M142.544,98.388h5.148l-2.552-6.424L142.544,98.388z" />
		<path fill="#B2B2B2" d="M168.988,99.18c0.278,0.382,0.575,0.832,0.891,1.354c0.315,0.521,0.605,1.02,0.869,1.496
		c0.264,0.477,0.564,1.045,0.902,1.705h-2.244c-0.015-0.045-0.081-0.195-0.198-0.451c-0.118-0.257-0.264-0.564-0.44-0.924
		c-0.176-0.359-0.374-0.738-0.594-1.134c-0.22-0.396-0.433-0.748-0.638-1.056c-0.162-0.234-0.349-0.488-0.561-0.76
		c-0.212-0.271-0.421-0.527-0.627-0.77s-0.393-0.458-0.561-0.648c-0.168-0.191-0.29-0.33-0.363-0.418h-1.782v6.16h-1.936V89.743
		h3.608c0.586,0,1.166,0.08,1.738,0.242c0.572,0.161,1.078,0.402,1.518,0.726s0.795,0.719,1.067,1.188
		c0.271,0.469,0.407,1.012,0.407,1.627c0,0.764-0.224,1.471-0.671,2.123s-1.082,1.199-1.903,1.639
		c0.176,0.206,0.414,0.492,0.715,0.858C168.485,98.513,168.753,98.858,168.988,99.18z M165.314,95.88
		c0.322,0,0.641-0.048,0.957-0.144c0.315-0.095,0.597-0.242,0.847-0.439c0.25-0.198,0.451-0.447,0.605-0.748
		c0.154-0.301,0.231-0.648,0.231-1.045c0-0.279-0.07-0.543-0.209-0.792s-0.312-0.462-0.517-0.638
		c-0.206-0.176-0.433-0.316-0.682-0.418c-0.25-0.104-0.492-0.154-0.726-0.154h-2.178v4.4L165.314,95.88z" />
		<path fill="#B2B2B2" d="M192.154,101.842v1.893h-12.21l8.756-12.299h-8.492v-1.693h12.034l-8.558,12.121L192.154,101.842z" />
		<path fill="#B2B2B2" d="M212.239,89.743v1.737h-4.51v12.255h-1.936V91.458h-4.334v-1.715H212.239z" />
		<path fill="#B2B2B2" d="M225.198,89.743c0.792,0,1.518,0.073,2.178,0.22c0.66,0.146,1.232,0.389,1.716,0.726
		c0.484,0.338,0.861,0.785,1.133,1.342c0.271,0.559,0.407,1.254,0.407,2.09c0,0.778-0.151,1.428-0.451,1.947
		c-0.301,0.521-0.701,0.936-1.199,1.243s-1.074,0.528-1.727,0.66c-0.653,0.132-1.339,0.198-2.057,0.198h-1.606v5.566H221.7V89.743
		H225.198z M225.198,96.298c0.337,0,0.7-0.025,1.089-0.077c0.389-0.051,0.748-0.161,1.078-0.33c0.33-0.168,0.601-0.403,0.814-0.704
		c0.212-0.3,0.319-0.7,0.319-1.198c0-0.528-0.103-0.95-0.308-1.266c-0.206-0.314-0.469-0.557-0.792-0.727
		c-0.323-0.168-0.678-0.274-1.067-0.318s-0.767-0.066-1.133-0.066h-1.606v4.709L225.198,96.298z" />
		<path fill="#B2B2B2" d="M247.968,99.18c0.278,0.382,0.575,0.832,0.891,1.354c0.315,0.521,0.605,1.02,0.869,1.496
		c0.264,0.477,0.564,1.045,0.902,1.705h-2.244c-0.015-0.045-0.081-0.195-0.198-0.451c-0.118-0.257-0.264-0.564-0.44-0.924
		c-0.176-0.359-0.374-0.738-0.594-1.134c-0.22-0.396-0.433-0.748-0.638-1.056c-0.162-0.234-0.349-0.488-0.561-0.76
		c-0.212-0.271-0.421-0.527-0.627-0.77s-0.393-0.458-0.561-0.648c-0.168-0.191-0.29-0.33-0.363-0.418h-1.782v6.16h-1.936V89.743
		h3.608c0.586,0,1.166,0.08,1.738,0.242c0.572,0.161,1.078,0.402,1.518,0.726s0.795,0.719,1.067,1.188
		c0.271,0.469,0.407,1.012,0.407,1.627c0,0.764-0.224,1.471-0.671,2.123s-1.082,1.199-1.903,1.639
		c0.176,0.206,0.414,0.492,0.715,0.858C247.466,98.513,247.733,98.858,247.968,99.18z M244.294,95.88
		c0.322,0,0.641-0.048,0.957-0.144c0.315-0.095,0.597-0.242,0.847-0.439c0.25-0.198,0.451-0.447,0.605-0.748
		c0.154-0.301,0.231-0.648,0.231-1.045c0-0.279-0.07-0.543-0.209-0.792s-0.312-0.462-0.517-0.638
		c-0.206-0.176-0.433-0.316-0.682-0.418c-0.25-0.104-0.492-0.154-0.726-0.154h-2.178v4.4L244.294,95.88z" />
		<path fill="#B2B2B2" d="M267.064,89.743l5.521,13.992h-2.111l-1.408-3.609h-6.512l-1.431,3.609h-2.067l5.676-13.992H267.064z
		 M263.236,98.388h5.148l-2.553-6.424L263.236,98.388z" />
		<path fill="#B2B2B2" d="M289.878,96.321l5.346,7.414h-2.486l-4.113-5.699l-4.225,5.699h-2.508l5.522-7.393l-4.774-6.6h2.508
		l3.542,4.883l3.652-4.883h2.42L289.878,96.321z" />
		<path fill="#B2B2B2" d="M307.236,89.743v13.992H305.3V89.743H307.236z" />
		<path fill="#B2B2B2" d="M322.614,95.264c0.499,0.25,0.961,0.502,1.387,0.76c0.425,0.256,0.795,0.549,1.11,0.879
		s0.562,0.712,0.737,1.145s0.264,0.949,0.264,1.551c0,0.587-0.103,1.148-0.308,1.684c-0.206,0.535-0.491,1.004-0.858,1.408
		c-0.366,0.402-0.807,0.722-1.319,0.956c-0.514,0.235-1.086,0.353-1.717,0.353c-1.056,0-1.99-0.275-2.805-0.825
		c-0.813-0.55-1.419-1.331-1.814-2.343l1.693-0.836c0.382,0.66,0.807,1.202,1.276,1.627c0.469,0.426,1.02,0.639,1.649,0.639
		c0.309,0,0.598-0.073,0.869-0.221c0.271-0.146,0.51-0.336,0.715-0.571c0.206-0.234,0.367-0.506,0.484-0.813
		c0.117-0.309,0.176-0.624,0.176-0.947c0-0.615-0.194-1.11-0.583-1.484s-0.854-0.707-1.396-1.001
		c-0.176-0.103-0.356-0.198-0.539-0.286c-0.184-0.088-0.378-0.184-0.583-0.285c-0.382-0.191-0.752-0.396-1.111-0.617
		c-0.359-0.219-0.679-0.469-0.957-0.748c-0.278-0.277-0.502-0.601-0.671-0.967c-0.169-0.367-0.253-0.8-0.253-1.299
		c0-0.498,0.088-0.961,0.264-1.386c0.177-0.425,0.422-0.792,0.737-1.101c0.315-0.308,0.689-0.549,1.122-0.726
		c0.433-0.176,0.913-0.264,1.441-0.264c0.806,0,1.532,0.19,2.178,0.571c0.646,0.382,1.158,0.961,1.54,1.738l-1.606,0.969
		c-0.587-1.042-1.312-1.562-2.178-1.562c-0.396,0-0.756,0.154-1.078,0.462s-0.483,0.696-0.483,1.166
		c0,0.278,0.055,0.521,0.164,0.726c0.11,0.206,0.254,0.389,0.43,0.551c0.176,0.161,0.37,0.301,0.583,0.418
		c0.212,0.117,0.421,0.22,0.627,0.308c0.146,0.073,0.289,0.136,0.429,0.187C322.369,95.129,322.497,95.191,322.614,95.264z" />
		<path fill="#B2B2B2" d="M357.792,89.743l5.522,13.992h-2.112l-1.408-3.609h-6.512l-1.43,3.609h-2.068l5.676-13.992H357.792z
		 M353.964,98.388h5.148l-2.552-6.424L353.964,98.388z" />
		<path fill="#B2B2B2" d="M386.811,89.743v13.992h-1.958V92.69l-5.192,6.204c-0.044-0.103-0.161-0.293-0.352-0.571
		c-0.191-0.279-0.426-0.605-0.704-0.979c-0.279-0.374-0.591-0.781-0.936-1.222c-0.345-0.439-0.686-0.868-1.022-1.286
		c-0.338-0.419-0.657-0.814-0.957-1.188c-0.301-0.373-0.547-0.686-0.737-0.935v11.022h-1.958V89.743h1.826l4.884,5.961l5.126-5.961
		H386.811z" />
		<path fill="#B2B2B2" d="M422.914,100.72l0.945,1.87c-0.352,0.22-0.773,0.437-1.265,0.648c-0.491,0.213-1.001,0.404-1.529,0.572
		c-0.527,0.168-1.049,0.309-1.562,0.418c-0.514,0.11-0.976,0.165-1.387,0.165c-1.085,0-2.09-0.198-3.014-0.594
		s-1.73-0.938-2.42-1.628s-1.229-1.496-1.617-2.42s-0.583-1.906-0.583-2.948c0-1.026,0.198-1.998,0.595-2.915
		c0.396-0.916,0.935-1.719,1.616-2.409c0.683-0.688,1.489-1.231,2.42-1.628c0.932-0.396,1.933-0.594,3.003-0.594
		c0.455,0,0.936,0.033,1.441,0.1c0.506,0.065,1.008,0.164,1.507,0.297c0.499,0.131,0.979,0.301,1.441,0.506s0.883,0.455,1.265,0.748
		l-0.857,1.957c-0.763-0.615-1.544-1.052-2.344-1.309c-0.799-0.256-1.588-0.385-2.364-0.385c-0.748,0-1.46,0.146-2.135,0.439
		c-0.675,0.294-1.269,0.693-1.781,1.199c-0.514,0.506-0.925,1.1-1.232,1.782s-0.462,1.419-0.462,2.211
		c0,0.777,0.146,1.507,0.44,2.188c0.293,0.683,0.692,1.28,1.198,1.793c0.506,0.514,1.093,0.921,1.761,1.222
		c0.667,0.301,1.375,0.45,2.122,0.45c0.881,0,1.69-0.149,2.432-0.45C421.289,101.707,422.078,101.278,422.914,100.72z" />
		<path fill="#B2B2B2" d="M440.842,89.743l5.522,13.992h-2.112l-1.408-3.609h-6.512l-1.43,3.609h-2.068l5.676-13.992H440.842z
		 M437.014,98.388h5.148l-2.552-6.424L437.014,98.388z" />
		<path fill="#B2B2B2" d="M468.584,89.743v13.992h-1.914l-8.602-10.494v10.494h-1.914V89.743h1.605l8.91,10.867V89.743H468.584z" />
		<path fill="#B2B2B2" d="M483.808,89.743c1.07,0,2.061,0.161,2.97,0.483c0.909,0.323,1.697,0.788,2.365,1.397
		c0.667,0.608,1.188,1.338,1.562,2.188s0.561,1.804,0.561,2.86c0,1.158-0.19,2.178-0.572,3.058c-0.381,0.88-0.913,1.617-1.595,2.212
		c-0.682,0.594-1.496,1.041-2.442,1.342c-0.945,0.3-1.99,0.451-3.135,0.451h-4.862V89.743H483.808z M482.928,101.886
		c0.865,0,1.676-0.088,2.431-0.265c0.756-0.176,1.408-0.469,1.958-0.879c0.55-0.411,0.982-0.957,1.298-1.64
		c0.315-0.682,0.474-1.521,0.474-2.519c0-0.953-0.184-1.749-0.55-2.387c-0.367-0.639-0.848-1.152-1.441-1.541
		s-1.269-0.666-2.024-0.836c-0.755-0.168-1.521-0.252-2.299-0.252h-2.178v10.34L482.928,101.886z" />
		<path fill="#B2B2B2" d="M503.586,89.743v13.992h-1.936V89.743H503.586z" />
		<path fill="#B2B2B2" d="M518.964,95.264c0.499,0.25,0.961,0.502,1.387,0.76c0.425,0.256,0.795,0.549,1.11,0.879
		s0.562,0.712,0.737,1.145s0.264,0.949,0.264,1.551c0,0.587-0.103,1.148-0.308,1.684c-0.206,0.535-0.491,1.004-0.858,1.408
		c-0.366,0.402-0.807,0.722-1.319,0.956c-0.514,0.235-1.086,0.353-1.717,0.353c-1.056,0-1.99-0.275-2.805-0.825
		c-0.813-0.55-1.419-1.331-1.814-2.343l1.693-0.836c0.382,0.66,0.807,1.202,1.276,1.627c0.469,0.426,1.02,0.639,1.649,0.639
		c0.309,0,0.598-0.073,0.869-0.221c0.271-0.146,0.51-0.336,0.715-0.571c0.206-0.234,0.367-0.506,0.484-0.813
		c0.117-0.309,0.176-0.624,0.176-0.947c0-0.615-0.194-1.11-0.583-1.484s-0.854-0.707-1.396-1.001
		c-0.176-0.103-0.356-0.198-0.539-0.286c-0.184-0.088-0.378-0.184-0.583-0.285c-0.382-0.191-0.752-0.396-1.111-0.617
		c-0.359-0.219-0.679-0.469-0.957-0.748c-0.278-0.277-0.502-0.601-0.671-0.967c-0.169-0.367-0.253-0.8-0.253-1.299
		c0-0.498,0.088-0.961,0.264-1.386c0.177-0.425,0.422-0.792,0.737-1.101c0.315-0.308,0.689-0.549,1.122-0.726
		c0.433-0.176,0.913-0.264,1.441-0.264c0.806,0,1.532,0.19,2.178,0.571c0.646,0.382,1.158,0.961,1.54,1.738l-1.606,0.969
		c-0.587-1.042-1.312-1.562-2.178-1.562c-0.396,0-0.756,0.154-1.078,0.462s-0.483,0.696-0.483,1.166
		c0,0.278,0.055,0.521,0.164,0.726c0.11,0.206,0.254,0.389,0.43,0.551c0.176,0.161,0.37,0.301,0.583,0.418
		c0.212,0.117,0.421,0.22,0.627,0.308c0.146,0.073,0.289,0.136,0.429,0.187C518.719,95.129,518.847,95.191,518.964,95.264z" />
	</g>
	<g>
		<path fill="#1B6172" d="M345.1,143.84c-1.627,0.008-3.272-0.121-4.846-0.583c-1.584-0.429-3.031-1.227-4.556-1.771
		c-1.521-0.567-3.135-0.824-4.752-0.875c-1.611-0.052-3.256,0.026-4.816,0.387c-1.58,0.334-3.029,1.04-4.524,1.716
		c-1.499,0.678-3.125,1.141-4.773,1.294c-1.658,0.16-3.287,0.168-4.949-0.05c-1.651-0.207-3.263-0.759-4.748-1.438
		c-1.487-0.67-2.967-1.245-4.548-1.465c-1.576-0.238-3.177-0.253-4.785-0.123c-1.574,0.14-3.126,0.5-4.582,1.15
		c-1.459,0.623-2.967,1.419-4.622,1.793c-1.644,0.404-3.326,0.508-4.986,0.472c-1.648-0.036-3.377-0.267-4.969-0.825
		c-1.608-0.55-3.035-1.347-4.526-1.793c-1.49-0.462-3.057-0.647-4.645-0.647c-1.605-0.003-3.161,0.133-4.661,0.542
		c-1.494,0.409-2.889,1.158-4.458,1.808c-1.576,0.634-3.289,1.013-4.974,1.11l-1.263,0.043c-0.46,0.005-0.829-0.016-1.249-0.022
		c-0.834-0.034-1.717-0.13-2.55-0.276c-1.693-0.302-3.316-1.002-4.769-1.657c-1.462-0.646-2.907-1.098-4.46-1.255
		c-0.762-0.084-1.579-0.11-2.32-0.117l-1.222,0.04l-1.141,0.106c-1.544,0.193-2.977,0.651-4.432,1.322
		c-1.445,0.668-3.084,1.385-4.787,1.684c-0.849,0.155-1.703,0.251-2.55,0.288c-0.431,0.008-0.829,0.041-1.288,0.028
		c-0.411-0.013-0.807-0.013-1.229-0.037c-1.744-0.094-3.454-0.461-5.059-1.096c-1.59-0.645-2.974-1.362-4.446-1.73
		c-1.464-0.372-3.038-0.482-4.579-0.453c-0.843,0.017-1.572,0.074-2.322,0.187c-0.758,0.109-1.494,0.287-2.215,0.523
		c-1.434,0.464-2.851,1.27-4.507,1.853c-1.65,0.578-3.405,0.83-5.102,0.878l-0.639,0.021l-0.643-0.014
		c-0.407-0.009-0.806-0.012-1.259-0.061c-0.888-0.066-1.737-0.189-2.593-0.4c-1.723-0.383-3.295-1.202-4.713-1.777
		c-1.427-0.599-2.875-0.912-4.415-1.022c-1.518-0.1-3.152-0.055-4.6,0.195c-1.502,0.237-2.85,0.797-4.347,1.487
		c-1.487,0.704-3.232,1.306-4.96,1.535c-1.752,0.238-3.406,0.246-5.151,0.09c-1.75-0.146-3.506-0.652-5.066-1.337
		c-1.545-0.688-2.889-1.292-4.354-1.576c-1.461-0.306-2.991-0.353-4.577-0.274c-1.5,0.069-2.969,0.339-4.366,0.884
		c-1.393,0.523-2.902,1.363-4.632,1.85c-1.729,0.514-3.451,0.65-5.223,0.657l-1.222-0.033l-1.339-0.118
		c-0.87-0.127-1.749-0.281-2.598-0.55c-1.728-0.498-3.214-1.348-4.607-1.836c-1.397-0.53-2.861-0.754-4.396-0.816
		c-0.374-0.003-0.791-0.036-1.129-0.017c-0.4,0.017-0.832,0.016-1.206,0.046c-0.72,0.061-1.467,0.146-2.19,0.314
		c-1.453,0.302-2.774,0.943-4.345,1.634c-1.567,0.699-3.366,1.175-5.1,1.319c-0.88,0.094-1.716,0.108-2.606,0.094
		c-0.774-0.01-1.718-0.069-2.592-0.202c-1.75-0.232-3.505-0.872-4.99-1.564c-1.482-0.68-2.816-1.186-4.301-1.396
		c-1.479-0.224-3.014-0.246-4.569-0.121c-1.471,0.128-2.899,0.463-4.296,1.08c-1.398,0.596-3.022,1.419-4.781,1.798
		c-1.748,0.409-3.503,0.495-5.207,0.442c-1.7-0.054-3.555-0.315-5.212-0.93c-1.693-0.6-3.085-1.397-4.483-1.803
		c-1.4-0.437-2.881-0.616-4.424-0.619c-1.583-0.004-3.087,0.124-4.636,0.37c-3.057,0.495-6.171,1.44-8.901,2.729l-2.052,0.969
		l-0.003-2.23l-0.059-49.385l0.013,0.192L30.229,10.749L32.9,10.74l-5.132,40.467l-5.183,40.461l-1.169,9.128l-1.158-9.121
		L9.977,10.677l1.591-0.004L0.416,94.311l0.001-0.026l-0.208,20.912L0,94.285v-0.011l0.001-0.015l9.975-83.786l0.743-6.237
		l0.849,6.233l11.017,80.901l-2.327,0.007l4.96-40.489l5.01-40.482L31.516,0l1.384,10.397l11.139,83.695l0.013,0.096v0.097
		l-0.059,49.385l-2.054-1.261c3.171-1.483,6.369-2.417,9.743-2.967c1.669-0.262,3.425-0.402,5.102-0.387
		c1.714,0.008,3.506,0.218,5.22,0.759c1.734,0.529,3.197,1.372,4.582,1.852c1.407,0.518,2.821,0.725,4.372,0.787
		c1.55,0.054,3.079-0.026,4.51-0.358c1.444-0.304,2.759-0.964,4.353-1.645c1.59-0.695,3.373-1.13,5.149-1.269
		c1.69-0.128,3.438-0.109,5.181,0.162c0.876,0.121,1.747,0.364,2.592,0.635c0.838,0.292,1.631,0.64,2.375,0.975
		c1.468,0.681,2.809,1.166,4.297,1.376c0.737,0.111,1.423,0.166,2.278,0.182c0.737,0.014,1.537,0.005,2.277-0.076
		c1.517-0.13,2.91-0.489,4.327-1.108c1.41-0.612,3.048-1.406,4.803-1.766c0.866-0.197,1.742-0.3,2.646-0.367
		c0.438-0.031,0.824-0.027,1.238-0.043c0.477-0.02,0.874,0.016,1.315,0.021c1.716,0.07,3.517,0.351,5.171,0.985
		c1.676,0.613,3.046,1.405,4.463,1.804c0.706,0.227,1.437,0.354,2.178,0.468l1.096,0.103l1.222,0.037
		c1.48-0.005,3.047-0.122,4.448-0.545c1.422-0.385,2.791-1.141,4.444-1.771c1.647-0.637,3.423-0.962,5.18-1.031
		c1.666-0.07,3.425-0.009,5.155,0.368c1.746,0.352,3.39,1.119,4.812,1.768c1.419,0.634,2.831,1.048,4.334,1.193
		c1.497,0.152,3.125,0.16,4.604-0.036c1.51-0.196,2.888-0.646,4.354-1.316c1.461-0.663,3.162-1.357,4.896-1.607
		c1.77-0.279,3.417-0.298,5.148-0.176c1.709,0.13,3.483,0.538,5.058,1.22c1.588,0.669,2.931,1.385,4.402,1.722
		c0.724,0.188,1.494,0.305,2.23,0.366c0.357,0.047,0.772,0.055,1.181,0.068l0.579,0.019l0.583-0.014
		c1.559-0.032,3.068-0.239,4.504-0.726c1.43-0.478,2.877-1.284,4.551-1.821c0.83-0.264,1.687-0.461,2.543-0.577
		c0.861-0.124,1.762-0.177,2.549-0.185c1.714-0.018,3.42,0.114,5.117,0.558c1.698,0.445,3.223,1.257,4.646,1.843
		c1.422,0.579,2.937,0.911,4.447,1.01c0.391,0.026,0.81,0.031,1.214,0.047c0.356,0.015,0.772-0.013,1.156-0.016
		c0.781-0.026,1.551-0.108,2.307-0.237c1.521-0.258,2.906-0.844,4.421-1.525c1.507-0.684,3.218-1.222,4.917-1.41l1.294-0.107
		l1.222-0.029c0.889,0.013,1.701,0.049,2.56,0.149c1.696,0.182,3.395,0.732,4.902,1.421c1.508,0.694,2.901,1.306,4.426,1.596
		c0.772,0.14,1.511,0.23,2.305,0.271c0.829,0.044,1.574,0.032,2.376,0.003c1.572-0.079,3.085-0.387,4.544-0.946
		c1.449-0.57,2.96-1.354,4.626-1.788c1.657-0.429,3.381-0.546,5.03-0.517c1.668,0.024,3.373,0.247,4.992,0.777
		c1.629,0.521,3.062,1.351,4.534,1.872c1.483,0.54,3.021,0.773,4.627,0.835c1.593,0.058,3.193-0.021,4.726-0.374
		c1.545-0.323,2.962-1.043,4.502-1.678c1.534-0.657,3.205-1.025,4.877-1.146c1.64-0.108,3.321-0.071,4.965,0.204
		c1.656,0.253,3.237,0.897,4.706,1.587c1.468,0.695,2.965,1.23,4.554,1.457c1.566,0.232,3.221,0.252,4.805,0.119
		c1.604-0.127,3.157-0.542,4.64-1.186c1.479-0.646,3.003-1.342,4.633-1.655c1.628-0.339,3.271-0.384,4.911-0.298
		c1.637,0.083,3.277,0.378,4.806,0.983c1.533,0.583,2.952,1.403,4.516,1.859C341.834,143.654,343.472,143.816,345.1,143.84z" />
	</g>
</svg>
