<?xml version="1.0" encoding="utf-8"?>
<!-- Generator: Adobe Illustrator 16.0.0, SVG Export Plug-In . SVG Version: 6.00 Build 0)  -->
<!DOCTYPE svg PUBLIC "-//W3C//DTD SVG 1.1//EN" "http://www.w3.org/Graphics/SVG/1.1/DTD/svg11.dtd">
<svg version="1.1" id="Ebene_1" xmlns="http://www.w3.org/2000/svg" xmlns:xlink="http://www.w3.org/1999/xlink" x="0px" y="0px"
	 width="100px" height="100px" viewBox="700 4950 100 100" enable-background="new 700 4950 100 100" xml:space="preserve">
<g>
	<path fill="#249FA5" d="M747.094,5050c-2.417,0-4.384-1.998-4.384-4.454v-12.992h-4.874c-3.719,0-7.092-2.827-7.845-6.576
		l-9.045-45.567v-0.289c0-16.609,13.033-30.122,29.054-30.122c7.758,0,15.058,3.143,20.552,8.85
		c5.482,5.694,8.501,13.249,8.5,21.272c0,0.157-0.03,0.285-0.051,0.36l-9.07,45.493c-0.751,3.751-4.107,6.578-7.807,6.578h-4.833
		v12.992c0,2.415-2.026,4.454-4.424,4.454H747.094z M746.813,5045.546c0,0.154,0.074,0.333,0.281,0.333h5.774
		c0.208,0,0.281-0.179,0.281-0.333v-12.992h-6.336V5045.546z M734.059,5025.129c0.327,1.712,2.127,3.265,3.78,3.265h24.286
		c1.643,0,3.464-1.561,3.821-3.272l8.968-45.246c-0.126-14.209-11.281-25.753-24.913-25.753c-6.651,0-12.903,2.693-17.604,7.583
		c-4.701,4.889-7.295,11.394-7.309,18.321L734.059,5025.129z M748.93,5016.614c-2.438,0-4.421-2.016-4.421-4.493v-16.019
		c0-2.436,1.983-4.416,4.421-4.416h2.104c2.438,0,4.423,1.98,4.423,4.416v16.019c0,2.478-1.984,4.493-4.423,4.493H748.93z
		 M748.93,4995.808c-0.1,0-0.187,0.031-0.243,0.088c-0.05,0.05-0.076,0.119-0.076,0.204v16.019c0,0.193,0.134,0.333,0.319,0.333
		h2.104c0.186,0,0.32-0.14,0.32-0.333v-16.018c0-0.216-0.165-0.293-0.32-0.293H748.93z M732.866,4982.145
		c-1.112,0-2.052-0.944-2.052-2.061c0-10.948,8.607-19.854,19.187-19.854c5.127,0,9.943,2.076,13.562,5.845
		c3.601,3.751,5.585,8.726,5.584,14.01c0,1.117-0.938,2.061-2.05,2.061H732.866z M764.837,4978.022
		c-0.329-2.686-1.288-5.189-2.813-7.34l-1.77,1.759c-0.317,0.392-0.896,0.658-1.523,0.658c-0.541,0-1.053-0.198-1.44-0.557
		c-0.43-0.432-0.638-1.008-0.6-1.608c0.037-0.576,0.298-1.102,0.718-1.457l1.763-1.806c-2.09-1.713-4.519-2.785-7.12-3.142v2.7
		c0,1.118-0.938,2.062-2.05,2.062c-0.563,0-1.113-0.242-1.509-0.664c-0.382-0.406-0.574-0.925-0.541-1.458l-0.001-2.638
		c-2.57,0.357-4.998,1.431-7.116,3.146l1.797,1.841c0.78,0.784,0.781,2.124-0.005,2.918c-0.382,0.387-0.92,0.61-1.476,0.61
		c-0.572,0-1.112-0.234-1.479-0.644l-1.699-1.713c-1.544,2.168-2.514,4.67-2.846,7.334h12.822v-4.938
		c-0.068-0.96,0.714-1.927,1.748-2.088c0.113-0.014,0.191-0.018,0.268-0.018c0.567,0,1.124,0.246,1.526,0.673
		c0.389,0.413,0.592,0.958,0.559,1.494l0.002,4.876H764.837z"/>
</g>
</svg>
