<?xml version="1.0" encoding="utf-8"?>
<!-- Generator: Adobe Illustrator 16.0.0, SVG Export Plug-In . SVG Version: 6.00 Build 0)  -->
<!DOCTYPE svg PUBLIC "-//W3C//DTD SVG 1.1//EN" "http://www.w3.org/Graphics/SVG/1.1/DTD/svg11.dtd">
<svg version="1.1" id="Ebene_1" xmlns="http://www.w3.org/2000/svg" xmlns:xlink="http://www.w3.org/1999/xlink" x="0px" y="0px"
	 width="100px" height="100px" viewBox="700 4950 100 100" enable-background="new 700 4950 100 100" xml:space="preserve">
<g>
	<path fill="#1B6172" d="M759.662,4986.562v57.814c0,3.101,2.522,5.623,5.622,5.623s5.623-2.522,5.623-5.623v-57.814
		c7.566-2.393,13.068-9.476,13.068-17.824c0-10.306-8.385-18.691-18.691-18.691s-18.691,8.385-18.691,18.691
		C746.593,4977.086,752.096,4984.17,759.662,4986.562z M768.408,5044.377c0,1.724-1.402,3.124-3.124,3.124s-3.123-1.4-3.123-3.124
		v-57.23c1.018,0.173,2.057,0.283,3.123,0.283c1.067,0,2.105-0.11,3.124-0.283V5044.377z M765.284,4952.546
		c8.929,0,16.192,7.263,16.192,16.192c0,8.93-7.264,16.192-16.192,16.192c-8.928,0-16.192-7.263-16.192-16.192
		C749.092,4959.809,756.356,4952.546,765.284,4952.546z"/>
	<path fill="#249FA5" d="M759.874,4979.416c0.244,0.244,0.563,0.366,0.884,0.366c0.319,0,0.64-0.122,0.883-0.366
		c0.489-0.489,0.489-1.278,0-1.767l-4.691-4.692c-0.488-0.488-1.278-0.488-1.767,0c-0.488,0.489-0.488,1.278,0,1.767
		L759.874,4979.416z"/>
	<path fill="#249FA5" d="M766.428,4979.361c0.243,0.244,0.563,0.366,0.883,0.366c0.32,0,0.64-0.123,0.884-0.366
		c0.488-0.488,0.488-1.278,0-1.767l-10.938-10.94c-0.488-0.488-1.278-0.488-1.767,0c-0.489,0.489-0.488,1.278,0,1.767
		L766.428,4979.361z"/>
	<path fill="#1B6172" d="M723.448,4976.591c3.291,1.78,5.35,5.028,5.454,8.521c-2.449,0.607-4.275,2.808-4.275,5.441v53.824
		c0,3.101,2.522,5.623,5.623,5.623c3.1,0,5.622-2.522,5.622-5.623v-53.824c0-2.708-1.923-4.972-4.475-5.504
		c-0.125-4.388-2.68-8.451-6.759-10.657c-3.935-2.129-6.273-6.229-6.104-10.704c0.23-6.065,5.357-11.083,11.43-11.188
		c4.288-0.099,8.294,2.219,10.393,5.993c0.333,0.601,1.096,0.821,1.699,0.485s0.821-1.096,0.485-1.699
		c-2.546-4.581-7.391-7.369-12.621-7.276c-7.375,0.128-13.604,6.225-13.883,13.592
		C715.83,4969.026,718.669,4974.006,723.448,4976.591z M733.372,4990.553v53.824c0,1.724-1.402,3.124-3.124,3.124
		s-3.124-1.4-3.124-3.124v-53.824c0-1.723,1.402-3.124,3.124-3.124S733.372,4988.83,733.372,4990.553z"/>
</g>
</svg>
