<?xml version="1.0" encoding="utf-8"?>
<!-- Generator: Adobe Illustrator 16.0.0, SVG Export Plug-In . SVG Version: 6.00 Build 0)  -->
<!DOCTYPE svg PUBLIC "-//W3C//DTD SVG 1.1//EN" "http://www.w3.org/Graphics/SVG/1.1/DTD/svg11.dtd">
<svg version="1.1" id="Ebene_1" xmlns="http://www.w3.org/2000/svg" xmlns:xlink="http://www.w3.org/1999/xlink" x="0px" y="0px"
	 width="100px" height="100px" viewBox="0 0 100 100" enable-background="new 0 0 100 100" xml:space="preserve">
<g>
	<g>
		<path fill="#249FA5" d="M40.522,100C21.669,100,6.333,84.663,6.333,65.812c0-13.162,7.8-25.303,19.871-30.931l1.1-0.512
			c0.394-0.184,0.852-0.175,1.237,0.026c0.386,0.2,0.657,0.568,0.734,0.996l1.435,7.963c0.108,0.599-0.182,1.199-0.719,1.485
			l-0.6,0.32c-7.671,4.099-12.437,12.013-12.437,20.652c0,12.994,10.573,23.566,23.568,23.566c8.688,0,16.64-4.86,20.753-12.685
			l1.149-2.188c0.272-0.518,0.843-0.803,1.413-0.74c0.579,0.07,1.053,0.493,1.19,1.061l2.42,9.941
			c0.018,0.07,0.029,0.142,0.036,0.214l0.198,0.453c0.212,0.481,0.137,1.041-0.195,1.449l-0.361,0.443
			C60.568,95.38,50.872,100,40.522,100z M26.839,37.685C16.065,42.961,9.136,53.935,9.136,65.812
			c0,17.306,14.08,31.385,31.386,31.385c9.416,0,18.243-4.165,24.261-11.436c-0.044-0.147-0.072-0.295-0.086-0.443l-1.524-6.265
			c-4.744,8.13-13.316,13.129-22.651,13.129c-14.542,0-26.372-11.83-26.372-26.37c0-9.563,5.209-18.33,13.62-22.963L26.839,37.685z"
			/>
	</g>
	<g>
		<path fill="#249FA5" d="M76.652,88.668c-3.02,0-5.598-1.979-6.416-4.923l-6.053-24.088H42.129c-3.119,0-5.766-2.22-6.435-5.398
			l-7.029-36.18c-1.581-1.992-2.451-4.473-2.451-7.021C26.214,4.96,31.175,0,37.271,0c6.098,0,11.058,4.96,11.058,11.058
			c0,3.929-2.073,7.486-5.477,9.509l1.825,9.23h15.96c3.636,0,6.595,2.958,6.595,6.595c0,3.637-2.959,6.595-6.595,6.595H47.174
			l0.656,3.35h21.734c3.134,0,5.778,2.053,6.432,4.992l5.704,22.688l4.084-0.995c0.498-0.12,1.003-0.179,1.506-0.179
			c2.7,0,5.669,1.813,6.171,5.281c0.429,1.627,0.188,3.313-0.675,4.791c-0.906,1.551-2.414,2.678-4.136,3.09L78.182,88.49
			C77.591,88.668,77.071,88.668,76.652,88.668z M37.271,2.804c-4.551,0-8.253,3.703-8.253,8.254c0,2.002,0.716,3.951,2.017,5.488
			l0.236,0.279l0.08,0.371l7.092,36.506c0.389,1.846,1.907,3.15,3.687,3.15h24.242l6.576,26.176c0.468,1.683,1.96,2.835,3.705,2.835
			c0.342,0,0.545-0.003,0.735-0.063l0.102-0.027l10.509-2.494c0.98-0.236,1.844-0.884,2.367-1.778
			c0.495-0.848,0.628-1.808,0.373-2.703l-0.045-0.212c-0.252-1.93-1.903-2.938-3.404-2.938c-0.284,0-0.569,0.033-0.848,0.1
			l-6.783,1.655l-6.392-25.429c-0.374-1.683-1.894-2.833-3.703-2.833H45.521l-1.753-8.958h16.869c2.091,0,3.791-1.701,3.791-3.791
			s-1.7-3.791-3.791-3.791H42.374L39.69,19.029l0.976-0.471c3.014-1.447,4.859-4.313,4.859-7.5
			C45.525,6.506,41.823,2.804,37.271,2.804z"/>
	</g>
</g>
</svg>
