<?xml version="1.0" encoding="utf-8"?>
<!-- Generator: Adobe Illustrator 16.0.0, SVG Export Plug-In . SVG Version: 6.00 Build 0)  -->
<!DOCTYPE svg PUBLIC "-//W3C//DTD SVG 1.1//EN" "http://www.w3.org/Graphics/SVG/1.1/DTD/svg11.dtd">
<svg version="1.1" id="Ebene_1" xmlns="http://www.w3.org/2000/svg" xmlns:xlink="http://www.w3.org/1999/xlink" x="0px" y="0px"
	 width="100px" height="100px" viewBox="700 4950 100 100" enable-background="new 700 4950 100 100" xml:space="preserve">
<g>
	<path fill="#249FA5" d="M793.75,5037.546h-87.5c-0.975,0-1.825-0.679-2.033-1.638l-4.167-18.75c-0.033-0.146-0.05-0.296-0.05-0.445
		v-50c0-9.192,7.475-16.667,16.667-16.667h66.667c9.192,0,16.667,7.475,16.667,16.667v49.871c0,0.154-0.017,0.3-0.05,0.446
		l-4.167,18.879C795.575,5036.867,794.725,5037.546,793.75,5037.546z M707.921,5033.379h84.154l3.758-17.025v-49.641
		c0-6.892-5.608-12.5-12.5-12.5h-66.667c-6.892,0-12.5,5.608-12.5,12.5v49.771L707.921,5033.379z"/>
	<path fill="#249FA5" d="M777.083,4970.879h-54.167c-1.15,0-2.083-0.938-2.083-2.083v-8.333c0-1.146,0.933-2.083,2.083-2.083h54.167
		c1.146,0,2.084,0.938,2.084,2.083v8.333C779.167,4969.941,778.229,4970.879,777.083,4970.879z M725,4966.712h50v-4.167h-50
		V4966.712z"/>
	<path fill="#249FA5" d="M789.583,5016.713h-79.167c-1.15,0-2.083-0.938-2.083-2.084v-37.5c0-1.146,0.933-2.083,2.083-2.083h79.167
		c1.146,0,2.084,0.938,2.084,2.083v37.5C791.667,5015.775,790.729,5016.713,789.583,5016.713z M712.5,5012.546h75v-33.333h-75
		V5012.546z"/>
	<path fill="#249FA5" d="M747.917,5014.629c-1.15,0-2.083-0.938-2.083-2.083v-33.333c0-1.146,0.933-2.083,2.083-2.083
		s2.083,0.938,2.083,2.083v33.333C750,5013.691,749.066,5014.629,747.917,5014.629z"/>
	<path fill="#249FA5" d="M720.833,5031.296c-3.446,0-6.25-2.804-6.25-6.25s2.804-6.25,6.25-6.25s6.25,2.804,6.25,6.25
		S724.279,5031.296,720.833,5031.296z M720.833,5022.963c-1.15,0-2.083,0.938-2.083,2.083s0.934,2.083,2.083,2.083
		s2.083-0.938,2.083-2.083S721.983,5022.963,720.833,5022.963z"/>
	<path fill="#249FA5" d="M779.167,5031.296c-3.446,0-6.25-2.804-6.25-6.25s2.804-6.25,6.25-6.25c3.445,0,6.25,2.804,6.25,6.25
		S782.612,5031.296,779.167,5031.296z M779.167,5022.963c-1.146,0-2.084,0.938-2.084,2.083s0.938,2.083,2.084,2.083
		c1.146,0,2.083-0.938,2.083-2.083S780.312,5022.963,779.167,5022.963z"/>
	<path fill="#249FA5" d="M762.5,5029.213h-25c-1.15,0-2.083-0.938-2.083-2.084c0-1.146,0.934-2.083,2.083-2.083h25
		c1.146,0,2.083,0.938,2.083,2.083C764.583,5028.275,763.646,5029.213,762.5,5029.213z"/>
	<path fill="#249FA5" d="M783.333,5049.954c-4.6,0-8.333-3.7-8.333-8.246v-4.167h4.167v4.167c0,2.288,1.829,4.079,4.166,4.079
		c2.259,0,4.167-1.945,4.167-4.254v-3.992h4.167v3.996C791.667,5046.184,787.934,5049.954,783.333,5049.954z"/>
	<path fill="#249FA5" d="M716.667,5049.954c-4.596,0-8.333-3.7-8.333-8.246v-4.167h4.167v4.167c0,2.288,1.829,4.079,4.167,4.079
		c2.258,0,4.167-1.945,4.167-4.254v-3.992H725v3.996C725,5046.184,721.263,5049.954,716.667,5049.954z"/>
	<path fill="#249FA5" d="M716.667,4989.458c-0.533,0-1.066-0.204-1.475-0.608c-0.812-0.8-0.812-2.133,0-2.946l4.08-4.079
		c0.812-0.804,2.133-0.804,2.95,0c0.812,0.804,0.812,2.142,0,2.946l-4.079,4.075C717.733,4989.254,717.2,4989.458,716.667,4989.458z
		"/>
	<path fill="#249FA5" d="M716.667,4997.962c-0.529,0-1.062-0.204-1.466-0.608c-0.817-0.8-0.821-2.129-0.013-2.946l12.5-12.587
		c0.816-0.821,2.133-0.821,2.946-0.008c0.817,0.8,0.821,2.125,0.013,2.941l-12.5,12.587
		C717.737,4997.758,717.2,4997.962,716.667,4997.962L716.667,4997.962z"/>
	<path fill="#249FA5" d="M754.688,4989.458c-0.521,0-1.037-0.191-1.441-0.579c-0.829-0.792-0.862-2.117-0.066-2.946l3.908-4.083
		c0.787-0.833,2.108-0.862,2.945-0.066c0.829,0.783,0.862,2.117,0.066,2.946l-3.908,4.079
		C755.787,4989.242,755.237,4989.458,754.688,4989.458L754.688,4989.458z"/>
</g>
</svg>
