<?xml version="1.0" encoding="utf-8"?>
<!-- Generator: Adobe Illustrator 16.0.0, SVG Export Plug-In . SVG Version: 6.00 Build 0)  -->
<!DOCTYPE svg PUBLIC "-//W3C//DTD SVG 1.1//EN" "http://www.w3.org/Graphics/SVG/1.1/DTD/svg11.dtd">
<svg version="1.1" id="Ebene_1" xmlns="http://www.w3.org/2000/svg" xmlns:xlink="http://www.w3.org/1999/xlink" x="0px" y="0px"
	 width="100px" height="100px" viewBox="0 0 100 100" enable-background="new 0 0 100 100" xml:space="preserve">
<g>
	<path fill="#1B6172" d="M44.73,95.374c-7.261,0-15.276-1.453-23.827-4.32c-0.443-0.146-0.8-0.479-0.98-0.91
		C11.6,70.285,12.101,51.876,21.37,36.91C33.871,16.72,61.352,3.813,96.77,1.501c0.002,0,0.004,0,0.007,0
		c0.521,0,0.905,0.15,1.21,0.436C98.312,2.242,98.5,2.674,98.5,3.123c0,29.304-4.848,67.724-27.939,84.334
		C63.258,92.71,54.566,95.374,44.73,95.374z M23.308,88.421c7.658,2.447,14.847,3.688,21.364,3.688
		c9.195,0,17.265-2.453,23.991-7.293C85.277,72.869,94.712,45.062,95.229,6.513l0.021-1.656l-1.651,0.143
		C60.943,7.804,35.623,20.058,24.132,38.62c-8.605,13.898-9.199,30.361-1.761,48.93l0.263,0.656L23.308,88.421z"/>
	<path fill="#249FA5" d="M3.12,98.499c-0.771,0-1.438-0.549-1.588-1.305c-0.175-0.881,0.396-1.74,1.274-1.916
		c0.326-0.068,33.248-7.414,59.174-52.787c0.289-0.506,0.83-0.82,1.414-0.82c0.283,0,0.555,0.072,0.803,0.215
		c0.376,0.215,0.646,0.564,0.763,0.982c0.114,0.42,0.06,0.856-0.156,1.232C37.905,91.181,4.839,98.188,3.445,98.462
		C3.333,98.487,3.228,98.499,3.12,98.499z"/>
</g>
</svg>
