<?xml version="1.0" encoding="utf-8"?>
<!-- Generator: Adobe Illustrator 16.0.0, SVG Export Plug-In . SVG Version: 6.00 Build 0) -->
<!DOCTYPE svg PUBLIC "-//W3C//DTD SVG 1.1//EN" "http://www.w3.org/Graphics/SVG/1.1/DTD/svg11.dtd">
<svg version="1.1" id="Ebene_1" xmlns="http://www.w3.org/2000/svg" xmlns:xlink="http://www.w3.org/1999/xlink" x="0px" y="0px" viewBox="0 24.561 100 50.879" enable-background="new 0 24.561 100 50.879" xml:space="preserve">
	<g>
		<path fill="#249FA5" d="M60.915,42.117v7.166l-0.237,0.02c-2.97,0.232-6.05,0.371-9.152,0.402l-0.26,0.002v-7.59H60.915z" />
		<path fill="#1B6172" d="M99.98,40.645c-0.002-0.02-0.008-0.035-0.014-0.055l-0.013-0.051c-0.022-0.082-0.047-0.154-0.077-0.217
		c-0.02-0.039-0.036-0.074-0.061-0.109c-0.01-0.021-0.022-0.043-0.032-0.064c-0.003-0.008-0.009-0.016-0.011-0.023
		c-0.014-0.016-0.025-0.027-0.041-0.043c-0.016-0.02-0.033-0.037-0.053-0.055c-0.013-0.02-0.024-0.033-0.037-0.053l-0.004-0.002
		l-0.022-0.029c-0.505-0.504-15.69-15.383-32.988-15.383c-5.92,0-11.468,1.75-16.481,5.201L50,29.861l-0.146-0.1
		c-5.02-3.451-10.565-5.199-16.488-5.199c-17.658,0-32.852,15.248-33.001,15.402c-0.017,0.021-0.031,0.043-0.05,0.062
		c-0.014,0.02-0.032,0.037-0.049,0.057c-0.013,0.012-0.025,0.023-0.035,0.041c-0.006,0.008-0.01,0.016-0.014,0.021
		c-0.01,0.021-0.021,0.045-0.033,0.064c-0.023,0.035-0.041,0.07-0.06,0.109c-0.03,0.062-0.054,0.135-0.077,0.219l-0.013,0.049
		c-0.005,0.018-0.011,0.035-0.013,0.057C0,40.752-0.005,40.859,0.005,40.961v0.031c0.013,0.1,0.034,0.197,0.067,0.287
		c0.367,1.027,9.234,25.236,26.902,32.285c3.121,1.244,6.361,1.875,9.635,1.875c4.316,0,8.783-1.094,13.279-3.256L50,72.131
		l0.111,0.053c4.496,2.162,8.967,3.256,13.279,3.256c3.273,0,6.514-0.631,9.635-1.875c17.666-7.047,26.535-31.258,26.904-32.285
		c0.032-0.09,0.053-0.186,0.065-0.283l-0.003-0.016l0.003-0.023C100.004,40.857,100.001,40.752,99.98,40.645z M24.15,49.686
		l0.205,0.045v7.916L24.001,57.5c-7.524-3.102-13.832-7.539-18.231-12.834l0.295-0.402C11.564,46.527,17.65,48.352,24.15,49.686z
		 M8.803,42.613l0.092-0.496h15.461v5.029l-0.312-0.066C18.67,45.945,13.543,44.441,8.803,42.613z M72.088,71.215
		c-2.804,1.117-5.727,1.688-8.686,1.688c-4.154,0-8.471-1.115-12.832-3.312c-0.176-0.09-0.373-0.137-0.57-0.137
		c-0.198,0-0.395,0.047-0.568,0.137c-4.361,2.197-8.68,3.312-12.834,3.312c-2.957,0-5.873-0.566-8.676-1.686
		c-9.503-3.785-16.436-13.264-20.578-20.553l0.395-0.316c4.724,4.291,10.564,7.75,17.381,10.283l0.027,0.01
		c7.646,2.836,16.232,4.346,24.834,4.357c0.008,0,0.133,0.006,0.133,0.006c16.375,0,31.637-5.172,41.871-14.186l0.395,0.322
		C88.281,58.24,81.434,67.488,72.088,71.215z M27.189,50.271c2.981,0.529,6.055,0.957,9.135,1.277l0.23,0.021v9.621l-0.306-0.059
		c-3.175-0.619-6.267-1.451-9.188-2.473l-0.172-0.062v-8.383L27.189,50.271z M26.889,47.645v-5.525h9.666v6.906l-0.283-0.031
		c-3.125-0.33-6.213-0.771-9.172-1.312L26.889,47.645z M39.365,51.82c2.957,0.236,6.023,0.373,9.115,0.412l0.256,0.002v10.201
		l-0.266-0.008c-3.139-0.066-6.224-0.324-9.164-0.762l-0.22-0.033v-9.834L39.365,51.82z M39.087,49.26v-7.143h9.649v7.586
		l-0.262-0.002c-3.088-0.039-6.168-0.18-9.15-0.426L39.087,49.26z M51.521,52.234c3.112-0.029,6.181-0.162,9.117-0.391l0.276-0.021
		v9.844l-0.22,0.029c-2.969,0.434-6.053,0.682-9.168,0.738l-0.262,0.006V52.236L51.521,52.234z M51.266,49.707v-7.59h9.649v7.166
		l-0.237,0.02c-2.97,0.232-6.05,0.371-9.152,0.402L51.266,49.707z M63.678,51.58c3.031-0.309,6.1-0.73,9.114-1.262l0.304-0.051
		v8.428l-0.176,0.062c-2.895,0.996-5.979,1.812-9.167,2.42l-0.308,0.057v-9.633L63.678,51.58z M63.445,49.055v-6.938h9.65v5.586
		l-0.215,0.037c-2.945,0.531-6.025,0.965-9.152,1.285L63.445,49.055z M75.979,57.615l-0.354,0.145v-7.971l0.209-0.043
		c6.593-1.334,12.758-3.168,18.319-5.455l0.297,0.4C89.999,50.049,83.611,54.518,75.979,57.615z M75.624,47.215v-5.098h15.784
		l0.093,0.498c-4.839,1.869-10.077,3.395-15.565,4.533L75.624,47.215z M4.538,39.586l0.548-0.455
		c12.602-10.459,23.092-12.02,28.225-12.02c5.779,0,11.142,1.791,15.94,5.324c0.22,0.164,0.478,0.248,0.75,0.248
		s0.534-0.084,0.752-0.248c4.792-3.533,10.151-5.324,15.929-5.324c5.131,0,15.623,1.562,28.231,12.02l0.548,0.455H4.538z" />
	</g>
</svg>
